<?xml version="1.0" encoding="utf-8"?>
<!-- Generator: Adobe Illustrator 15.0.0, SVG Export Plug-In . SVG Version: 6.00 Build 0)  -->
<!DOCTYPE svg PUBLIC "-//W3C//DTD SVG 1.1//EN" "http://www.w3.org/Graphics/SVG/1.1/DTD/svg11.dtd">
<svg version="1.1" id="Layer_1" xmlns="http://www.w3.org/2000/svg" xmlns:xlink="http://www.w3.org/1999/xlink" x="0px" y="0px"
	 width="400px" height="100px" viewBox="0 0 400 100" enable-background="new 0 0 400 100" xml:space="preserve">
<text transform="matrix(1.1049 0 0 1 150.1567 33.834)" fill="#FFFFFF" stroke="#FFFFFF" stroke-width="0.3" stroke-miterlimit="10" font-family="'Hero-Light'" font-size="16.7257">PRODUCTORA</text>
<text transform="matrix(1.1049 0 0 1 95.208 59.7871)" fill="#FFFFFF" stroke="#FFFFFF" stroke-width="0.1" stroke-miterlimit="10" font-family="'Hero-Light'" font-size="16.7136">Audiovisual &amp; Multimedia</text>
<path fill="#000002" stroke="#020202" stroke-miterlimit="10" d="M121.469,10.738c10.438,0,18.918,7.684,18.918,17.175
	c0,9.476-8.481,17.176-18.918,17.176s-18.914-7.7-18.914-17.176C102.555,18.421,111.031,10.738,121.469,10.738z"/>
<polygon fill="none" stroke="#0000FF" stroke-width="1.5" stroke-miterlimit="10" points="128.64,36.481 138.076,27.829 
	128.601,19.013 "/>
<text transform="matrix(1.083 0 0 1 105.5415 29.0303)" fill="#FCFCFC" font-family="'Skia-Regular'" font-size="14.846">S</text>
<text transform="matrix(1.083 0 0 1 114.4648 32.5576)" fill="#FFFDFD" font-family="'Skia-Regular'" font-size="14.846">E</text>
<text transform="matrix(1.083 0 0 1 126.1309 32.5576)" fill="#FCFCFC" font-family="'Skia-Regular'" font-size="14.846">A</text>
<path fill="#F4210B" d="M119.947,13.941c1.792,0,3.252,1.414,3.252,3.155c0,1.756-1.46,3.168-3.252,3.168
	c-1.741,0-3.152-1.412-3.152-3.168C116.794,15.355,118.206,13.941,119.947,13.941z"/>
<g>
	<g>
		<path fill="#F7F7F7" stroke="#FFFFFF" stroke-width="0.17" stroke-miterlimit="10" d="M106.029,31.738
			c0.42-0.01,0.764-0.05,1.186-0.106c4.038-0.758,4.687,0.267,6.874,2.162c0.925,0.762,2.057,1.098,3.142,1.455
			c2.559,0.806,5.542-0.058,8.047-0.632c0.124-0.035,0.104-0.167-0.019-0.137c-2.267,0.513-4.443,0.973-6.768,0.829
			c-2.882-0.17-4.305-1.851-6.251-3.366c-1.749-1.433-4.139-0.543-6.205-0.358C105.925,31.602,105.902,31.754,106.029,31.738
			L106.029,31.738z"/>
	</g>
</g>
<g>
	<g>
		<path fill="#F7F7F7" stroke="#FFFFFF" stroke-width="0.17" stroke-miterlimit="10" d="M106.029,32.565
			c0.42-0.011,0.764-0.051,1.186-0.107c4.038-0.759,4.687,0.267,6.874,2.157c0.925,0.768,2.057,1.104,3.142,1.453
			c2.559,0.812,5.542-0.052,8.047-0.622c0.124-0.033,0.104-0.174-0.019-0.143c-2.267,0.518-4.443,0.972-6.768,0.832
			c-2.882-0.176-4.305-1.85-6.251-3.366c-1.749-1.433-4.139-0.543-6.205-0.356C105.925,32.428,105.902,32.577,106.029,32.565
			L106.029,32.565z"/>
	</g>
</g>
<g>
	<g>
		<path fill="#F7F7F7" stroke="#FFFFFF" stroke-width="0.17" stroke-miterlimit="10" d="M106.029,33.385
			c0.42-0.008,0.764-0.048,1.186-0.106c4.038-0.753,4.687,0.27,6.874,2.164c0.925,0.765,2.057,1.103,3.142,1.458
			c2.559,0.799,5.542-0.065,8.047-0.632c0.124-0.033,0.104-0.17-0.019-0.139c-2.267,0.522-4.443,0.973-6.768,0.828
			c-2.882-0.173-4.305-1.846-6.251-3.367c-1.749-1.434-4.139-0.543-6.205-0.356C105.925,33.25,105.902,33.404,106.029,33.385
			L106.029,33.385z"/>
	</g>
</g>
<g>
	<g>
		<path fill="#F7F7F7" stroke="#FFFFFF" stroke-width="0.17" stroke-miterlimit="10" d="M106.029,34.213
			c0.42-0.007,0.764-0.046,1.186-0.11c4.038-0.752,4.687,0.271,6.874,2.163c0.925,0.768,2.057,1.104,3.142,1.458
			c2.559,0.802,5.542-0.058,8.047-0.628c0.124-0.033,0.104-0.171-0.019-0.14c-2.267,0.518-4.443,0.974-6.768,0.827
			c-2.882-0.174-4.305-1.847-6.251-3.361c-1.749-1.433-4.139-0.551-6.205-0.355C105.925,34.073,105.902,34.227,106.029,34.213
			L106.029,34.213z"/>
	</g>
</g>
<g>
	<g>
		<path fill="#F7F7F7" stroke="#FFFFFF" stroke-width="0.17" stroke-miterlimit="10" d="M106.029,35.036
			c0.42-0.009,0.764-0.043,1.186-0.107c4.038-0.756,4.687,0.268,6.874,2.162c0.925,0.765,2.057,1.104,3.142,1.459
			c2.559,0.807,5.542-0.061,8.047-0.629c0.124-0.036,0.104-0.17-0.019-0.142c-2.267,0.524-4.443,0.975-6.768,0.833
			c-2.882-0.176-4.305-1.848-6.251-3.367c-1.749-1.435-4.139-0.545-6.205-0.356C105.925,34.899,105.902,35.054,106.029,35.036
			L106.029,35.036z"/>
	</g>
</g>
</svg>
