<?xml version="1.0" encoding="utf-8"?>
<!-- Generator: Adobe Illustrator 15.0.0, SVG Export Plug-In . SVG Version: 6.00 Build 0)  -->
<!DOCTYPE svg PUBLIC "-//W3C//DTD SVG 1.1//EN" "http://www.w3.org/Graphics/SVG/1.1/DTD/svg11.dtd">
<svg version="1.1" id="Layer_1" xmlns="http://www.w3.org/2000/svg" xmlns:xlink="http://www.w3.org/1999/xlink" x="0px" y="0px"
	 width="400px" height="100px" viewBox="0 0 400 100" enable-background="new 0 0 400 100" xml:space="preserve">
<text transform="matrix(1.1049 0 0 1 145.4902 34.834)" stroke="#000000" stroke-width="0.5" stroke-miterlimit="10" font-family="'Hero-Light'" font-size="16.7257">PRODUCTORA</text>
<text transform="matrix(1.1049 0 0 1 98.208 59.7871)" font-family="'Hero-Light'" font-size="14">Audiovisual &amp; Multimedia</text>
<text transform="matrix(1.1049 0 0 1 98.208 59.7871)" fill="none" stroke="#000000" stroke-width="0.25" stroke-miterlimit="10" font-family="'Hero-Light'" font-size="14">Audiovisual &amp; Multimedia</text>
<path fill="#000002" stroke="#020202" stroke-miterlimit="10" d="M120.977,10.234c9.657,0.115,17.42,8.035,17.316,17.706
	c-0.104,9.653-8.033,17.408-17.691,17.292c-9.652-0.115-17.41-8.053-17.307-17.707C103.398,17.854,111.323,10.119,120.977,10.234z"
	/>
<polygon fill="none" stroke="#0000FF" stroke-width="1.5" stroke-miterlimit="10" points="125.724,35.121 132.036,28.396 
	125.702,21.543 "/>
<text transform="matrix(0.9316 0 0 1 110.2773 29.3315)" fill="#FCFCFC" font-family="'Hero'" font-size="11.5415">S</text>
<text transform="matrix(0.9316 0 0 1 116.9121 32.0718)" fill="#FFFDFD" font-family="'Hero'" font-size="11.5415">E</text>
<text transform="matrix(0.9316 0 0 1 123.8242 32.0718)" fill="#FCFCFC" font-family="'Hero'" font-size="11.5415">A</text>
<path fill="#F4210B" d="M120.205,17.925c1.396,0,2.538,1.118,2.538,2.496c0,1.386-1.143,2.504-2.538,2.504
	c-1.358,0-2.461-1.118-2.461-2.504C117.742,19.042,118.845,17.925,120.205,17.925z"/>
<g>
	<g>
		<path fill="#F7F7F7" stroke="#FFFFFF" stroke-width="0.17" stroke-miterlimit="10" d="M110.605,31.437
			c0.28-0.008,0.513-0.042,0.792-0.084c2.7-0.59,3.135,0.208,4.597,1.679c0.618,0.595,1.375,0.855,2.101,1.133
			c1.711,0.628,3.704-0.043,5.378-0.491c0.086-0.028,0.075-0.13-0.011-0.108c-1.513,0.4-2.971,0.757-4.527,0.643
			c-1.928-0.133-2.878-1.438-4.178-2.616c-1.171-1.114-2.768-0.423-4.15-0.279C110.536,31.328,110.521,31.446,110.605,31.437
			L110.605,31.437z"/>
	</g>
</g>
<g>
	<g>
		<path fill="#F7F7F7" stroke="#FFFFFF" stroke-width="0.17" stroke-miterlimit="10" d="M110.605,32.079
			c0.28-0.009,0.513-0.04,0.792-0.086c2.7-0.587,3.135,0.207,4.597,1.68c0.618,0.599,1.375,0.859,2.101,1.13
			c1.711,0.631,3.704-0.041,5.378-0.485c0.086-0.023,0.075-0.137-0.011-0.111c-1.513,0.403-2.971,0.755-4.527,0.648
			c-1.928-0.136-2.878-1.438-4.178-2.616c-1.171-1.116-2.768-0.422-4.15-0.279C110.536,31.972,110.521,32.089,110.605,32.079
			L110.605,32.079z"/>
	</g>
</g>
<g>
	<g>
		<path fill="#F7F7F7" stroke="#FFFFFF" stroke-width="0.17" stroke-miterlimit="10" d="M110.605,32.717
			c0.28-0.008,0.513-0.038,0.792-0.083c2.7-0.589,3.135,0.208,4.597,1.68c0.618,0.596,1.375,0.857,2.101,1.136
			c1.711,0.621,3.704-0.051,5.378-0.492c0.086-0.027,0.075-0.133-0.011-0.11c-1.513,0.406-2.971,0.759-4.527,0.646
			c-1.928-0.137-2.878-1.435-4.178-2.618c-1.171-1.115-2.768-0.422-4.15-0.274C110.536,32.609,110.521,32.733,110.605,32.717
			L110.605,32.717z"/>
	</g>
</g>
<g>
	<g>
		<path fill="#F7F7F7" stroke="#FFFFFF" stroke-width="0.17" stroke-miterlimit="10" d="M110.605,33.358
			c0.28-0.003,0.513-0.037,0.792-0.086c2.7-0.583,3.135,0.213,4.597,1.683c0.618,0.597,1.375,0.858,2.101,1.131
			c1.711,0.623,3.704-0.043,5.378-0.487c0.086-0.024,0.075-0.131-0.011-0.107c-1.513,0.403-2.971,0.756-4.527,0.643
			c-1.928-0.136-2.878-1.435-4.178-2.613c-1.171-1.114-2.768-0.427-4.15-0.28C110.536,33.252,110.521,33.371,110.605,33.358
			L110.605,33.358z"/>
	</g>
</g>
<g>
	<g>
		<path fill="#F7F7F7" stroke="#FFFFFF" stroke-width="0.17" stroke-miterlimit="10" d="M110.605,33.998
			c0.28-0.007,0.513-0.033,0.792-0.082c2.7-0.588,3.135,0.208,4.597,1.681c0.618,0.594,1.375,0.855,2.101,1.132
			c1.711,0.628,3.704-0.046,5.378-0.488c0.086-0.028,0.075-0.132-0.011-0.111c-1.513,0.41-2.971,0.761-4.527,0.648
			c-1.928-0.136-2.878-1.437-4.178-2.616c-1.171-1.116-2.768-0.426-4.15-0.277C110.536,33.891,110.521,34.015,110.605,33.998
			L110.605,33.998z"/>
	</g>
</g>
</svg>
