<?xml version="1.0" encoding="utf-8"?>
<!-- Generator: Adobe Illustrator 15.0.0, SVG Export Plug-In . SVG Version: 6.00 Build 0)  -->
<!DOCTYPE svg PUBLIC "-//W3C//DTD SVG 1.1//EN" "http://www.w3.org/Graphics/SVG/1.1/DTD/svg11.dtd">
<svg version="1.1" id="Layer_1" xmlns="http://www.w3.org/2000/svg" xmlns:xlink="http://www.w3.org/1999/xlink" x="0px" y="0px"
	 width="150px" height="150px" viewBox="0 0 150 150" enable-background="new 0 0 150 150" xml:space="preserve">
<path fill="#000002" stroke="#020202" stroke-miterlimit="10" d="M75.349,19.968c18.753,0.224,33.842,15.166,33.649,33.4
	c-0.193,18.208-15.595,32.823-34.352,32.595c-18.759-0.223-33.837-15.2-33.644-33.401C41.195,34.323,56.589,19.745,75.349,19.968z"
	/>
<polygon fill="none" stroke="#0000FF" stroke-width="1.5" stroke-miterlimit="10" points="84.493,66.747 96.417,53.965 
	84.447,40.937 "/>
<text transform="matrix(0.9266 0 0 1 55.293 55.7417)" fill="#FCFCFC" font-family="'Hero-Light'" font-size="21.9377">S</text>
<text transform="matrix(0.9266 0 0 1 68.5732 60.9521)" fill="#FFFDFD" font-family="'Hero-Light'" font-size="21.9377">E</text>
<text transform="matrix(0.9266 0 0 1 81.3223 60.9521)" fill="#FCFCFC" font-family="'Hero-Light'" font-size="21.9377">A</text>
<path fill="#F4210B" d="M74.498,33.144c2.515,0,4.571,2.013,4.571,4.489c0,2.503-2.057,4.511-4.571,4.511
	c-2.448,0-4.429-2.008-4.429-4.511C70.068,35.157,72.048,33.144,74.498,33.144z"/>
<g>
	<g>
		<path fill="#F7F7F7" stroke="#FFFFFF" stroke-width="0.17" stroke-miterlimit="10" d="M55.908,59.744
			c0.532-0.015,0.97-0.079,1.499-0.157c5.103-1.125,5.922,0.391,8.689,3.192c1.169,1.128,2.6,1.623,3.973,2.157
			c3.232,1.191,7.009-0.091,10.169-0.938c0.161-0.055,0.133-0.25-0.025-0.203c-2.855,0.756-5.614,1.434-8.554,1.221
			c-3.647-0.252-5.442-2.735-7.9-4.975c-2.217-2.116-5.236-0.803-7.846-0.528C55.776,59.541,55.749,59.764,55.908,59.744
			L55.908,59.744z"/>
	</g>
</g>
<g>
	<g>
		<path fill="#F7F7F7" stroke="#FFFFFF" stroke-width="0.17" stroke-miterlimit="10" d="M55.908,60.967
			c0.532-0.024,0.97-0.08,1.499-0.162c5.103-1.121,5.922,0.394,8.689,3.188c1.169,1.137,2.6,1.633,3.973,2.146
			c3.232,1.2,7.009-0.075,10.169-0.913c0.161-0.05,0.133-0.261-0.025-0.22c-2.855,0.769-5.614,1.439-8.554,1.232
			c-3.647-0.259-5.442-2.73-7.9-4.975c-2.217-2.115-5.236-0.802-7.846-0.521C55.776,60.762,55.749,60.982,55.908,60.967
			L55.908,60.967z"/>
	</g>
</g>
<g>
	<g>
		<path fill="#F7F7F7" stroke="#FFFFFF" stroke-width="0.17" stroke-miterlimit="10" d="M55.908,62.174
			c0.532-0.008,0.97-0.069,1.499-0.155c5.103-1.114,5.922,0.4,8.689,3.195c1.169,1.133,2.6,1.626,3.973,2.157
			c3.232,1.18,7.009-0.098,10.169-0.934c0.161-0.05,0.133-0.25-0.025-0.209c-2.855,0.771-5.614,1.443-8.554,1.225
			c-3.647-0.26-5.442-2.726-7.9-4.973c-2.217-2.12-5.236-0.802-7.846-0.523C55.776,61.973,55.749,62.205,55.908,62.174
			L55.908,62.174z"/>
	</g>
</g>
<g>
	<g>
		<path fill="#F7F7F7" stroke="#FFFFFF" stroke-width="0.17" stroke-miterlimit="10" d="M55.908,63.396
			c0.532-0.005,0.97-0.07,1.499-0.164c5.103-1.105,5.922,0.407,8.689,3.198c1.169,1.135,2.6,1.633,3.973,2.149
			c3.232,1.19,7.009-0.077,10.169-0.921c0.161-0.046,0.133-0.253-0.025-0.208c-2.855,0.768-5.614,1.443-8.554,1.225
			c-3.647-0.258-5.442-2.731-7.9-4.965c-2.217-2.125-5.236-0.813-7.846-0.531C55.776,63.197,55.749,63.422,55.908,63.396
			L55.908,63.396z"/>
	</g>
</g>
<g>
	<g>
		<path fill="#F7F7F7" stroke="#FFFFFF" stroke-width="0.17" stroke-miterlimit="10" d="M55.908,64.614
			c0.532-0.014,0.97-0.063,1.499-0.16c5.103-1.112,5.922,0.398,8.689,3.198c1.169,1.126,2.6,1.628,3.973,2.152
			c3.232,1.192,7.009-0.091,10.169-0.931c0.161-0.05,0.133-0.25-0.025-0.204c-2.855,0.778-5.614,1.44-8.554,1.231
			c-3.647-0.258-5.442-2.734-7.9-4.972c-2.217-2.123-5.236-0.812-7.846-0.533C55.776,64.413,55.749,64.644,55.908,64.614
			L55.908,64.614z"/>
	</g>
</g>
</svg>
