<?xml version="1.0" encoding="utf-8"?>
<!-- Generator: Adobe Illustrator 15.0.0, SVG Export Plug-In . SVG Version: 6.00 Build 0)  -->
<!DOCTYPE svg PUBLIC "-//W3C//DTD SVG 1.1//EN" "http://www.w3.org/Graphics/SVG/1.1/DTD/svg11.dtd">
<svg version="1.1" id="Layer_1" xmlns="http://www.w3.org/2000/svg" xmlns:xlink="http://www.w3.org/1999/xlink" x="0px" y="0px"
	 width="200px" height="100px" viewBox="0 0 200 100" enable-background="new 0 0 200 100" xml:space="preserve">
<text transform="matrix(1.0125 0 0 1 61.2427 49.7275)" fill="#020202" stroke="#000005" stroke-width="0.25" stroke-miterlimit="10" font-family="'Hero'" font-size="15">PRODUCTORA</text>
<text transform="matrix(1.0125 0 0 1 16.0879 73.0029)" fill="#686565" font-family="'Hero-Light'" font-size="14.9892">Audiovisual &amp; Multimedia</text>
<ellipse fill="#000002" stroke="#020202" stroke-miterlimit="10" cx="38.084" cy="43.916" rx="15.417" ry="14.918"/>
<polygon fill="none" stroke="#0000FF" stroke-miterlimit="10" points="43.532,52.085 51.298,44.328 43.518,36.421 "/>
<text transform="matrix(0.9925 0 0 1 26.5659 45.4175)" fill="#FCFCFC" font-family="'AppleSDGothicNeo-Thin-83pv-RKSJ-H'" font-size="13.3143">S</text>
<text transform="matrix(0.9925 0 0 1 33.6323 48.5815)" fill="#FFFDFD" font-family="'AppleSDGothicNeo-Thin-83pv-RKSJ-H'" font-size="13.3143">E</text>
<text transform="matrix(0.9925 0 0 1 42.3574 48.582)" fill="#FCFCFC" font-family="'AppleSDGothicNeo-Thin-83pv-RKSJ-H'" font-size="13.3143">A</text>
<ellipse fill="#F4210B" stroke="#232323" stroke-miterlimit="10" cx="37.023" cy="35.534" rx="2.631" ry="2.835"/>
<g>
	<g>
		<path fill="#F7F7F7" d="M24.982,46.943c0.318-0.009,0.633-0.042,0.944-0.097c3.363-0.678,3.87,0.241,5.689,1.939
			c0.735,0.686,1.648,0.99,2.572,1.308c2.091,0.719,4.572-0.054,6.604-0.566c0.119-0.03,0.085-0.154-0.033-0.124
			c-1.85,0.465-3.619,0.873-5.55,0.744c-2.342-0.156-3.553-1.658-5.112-3.019c-1.472-1.285-3.406-0.49-5.096-0.319
			C24.896,46.82,24.85,46.956,24.982,46.943L24.982,46.943z"/>
	</g>
</g>
<g>
	<g>
		<path fill="#F7F7F7" d="M24.982,47.683c0.318-0.009,0.633-0.042,0.944-0.097c3.363-0.678,3.87,0.241,5.689,1.939
			c0.735,0.686,1.648,0.99,2.572,1.308c2.091,0.719,4.572-0.054,6.604-0.566c0.119-0.03,0.085-0.154-0.033-0.124
			c-1.85,0.465-3.619,0.872-5.55,0.744c-2.342-0.156-3.553-1.658-5.112-3.019c-1.472-1.285-3.406-0.489-5.096-0.319
			C24.896,47.56,24.85,47.696,24.982,47.683L24.982,47.683z"/>
	</g>
</g>
<g>
	<g>
		<path fill="#F7F7F7" d="M24.982,48.422c0.318-0.009,0.633-0.042,0.944-0.097c3.363-0.678,3.87,0.241,5.689,1.939
			c0.735,0.686,1.648,0.99,2.572,1.308c2.091,0.72,4.572-0.055,6.604-0.565c0.119-0.03,0.085-0.154-0.033-0.125
			c-1.85,0.465-3.619,0.873-5.55,0.744c-2.342-0.155-3.553-1.658-5.112-3.019c-1.472-1.285-3.406-0.489-5.096-0.319
			C24.896,48.299,24.85,48.436,24.982,48.422L24.982,48.422z"/>
	</g>
</g>
<g>
	<g>
		<path fill="#F7F7F7" d="M24.982,49.162c0.318-0.009,0.633-0.042,0.944-0.097c3.363-0.678,3.87,0.241,5.689,1.939
			c0.735,0.687,1.648,0.99,2.572,1.308c2.091,0.72,4.572-0.054,6.604-0.565c0.119-0.03,0.085-0.154-0.033-0.125
			c-1.85,0.466-3.619,0.873-5.55,0.745c-2.343-0.156-3.553-1.658-5.112-3.019c-1.472-1.285-3.406-0.489-5.096-0.319
			C24.896,49.039,24.85,49.175,24.982,49.162L24.982,49.162z"/>
	</g>
</g>
<g>
	<g>
		<path fill="#F7F7F7" d="M24.982,49.902c0.318-0.009,0.633-0.042,0.944-0.097c3.363-0.678,3.87,0.241,5.689,1.938
			c0.735,0.687,1.649,0.99,2.572,1.309c2.091,0.719,4.572-0.055,6.604-0.565c0.119-0.03,0.085-0.154-0.033-0.125
			c-1.85,0.466-3.619,0.872-5.55,0.744c-2.342-0.156-3.553-1.657-5.112-3.019c-1.472-1.285-3.406-0.489-5.096-0.319
			C24.896,49.779,24.85,49.915,24.982,49.902L24.982,49.902z"/>
	</g>
</g>
</svg>
