<?xml version="1.0" encoding="utf-8"?>
<!-- Generator: Adobe Illustrator 15.0.0, SVG Export Plug-In . SVG Version: 6.00 Build 0)  -->
<!DOCTYPE svg PUBLIC "-//W3C//DTD SVG 1.1//EN" "http://www.w3.org/Graphics/SVG/1.1/DTD/svg11.dtd">
<svg version="1.1" id="Layer_1" xmlns="http://www.w3.org/2000/svg" xmlns:xlink="http://www.w3.org/1999/xlink" x="0px" y="0px"
	 width="150px" height="150px" viewBox="0 0 150 150" enable-background="new 0 0 150 150" xml:space="preserve">
<path fill="#000002" stroke="#020202" stroke-miterlimit="10" d="M71.695,46.648c16.557,0,30.004,12.974,30.004,28.999
	c0,16.002-13.447,29.001-30.004,29.001c-16.554,0-29.996-12.999-29.996-29.001C41.699,59.622,55.142,46.648,71.695,46.648z"/>
<polygon fill="none" stroke="#0000FF" stroke-width="1.5" stroke-miterlimit="10" points="83.069,90.118 98.037,75.505 
	83.01,60.623 "/>
<text transform="matrix(1.0173 0 0 1 46.4399 77.5352)" fill="#FCFCFC" font-family="'Skia-Regular'" font-size="25.0669">S</text>
<text transform="matrix(1.0173 0 0 1 60.5903 83.4893)" fill="#FFFDFD" font-family="'Skia-Regular'" font-size="25.0669">E</text>
<text transform="matrix(1.0173 0 0 1 79.0938 83.4893)" fill="#FCFCFC" font-family="'Skia-Regular'" font-size="25.0669">A</text>
<path fill="#F4210B" d="M69.282,52.057c2.842,0,5.156,2.389,5.156,5.327c0,2.963-2.314,5.349-5.156,5.349c-2.759,0-5-2.385-5-5.349
	C64.282,54.446,66.523,52.057,69.282,52.057z"/>
<g>
	<g>
		<path fill="#F7F7F7" stroke="#FFFFFF" stroke-width="0.17" stroke-miterlimit="10" d="M47.21,82.107
			c0.665-0.021,1.213-0.087,1.882-0.183c6.401-1.275,7.43,0.45,10.902,3.653c1.466,1.283,3.256,1.854,4.982,2.452
			c4.054,1.36,8.789-0.094,12.761-1.064c0.201-0.061,0.16-0.281-0.032-0.233c-3.592,0.869-7.046,1.642-10.737,1.405
			c-4.57-0.285-6.827-3.126-9.909-5.685c-2.777-2.418-6.564-0.92-9.839-0.604C47.046,81.876,47.01,82.134,47.21,82.107L47.21,82.107
			z"/>
	</g>
</g>
<g>
	<g>
		<path fill="#F7F7F7" stroke="#FFFFFF" stroke-width="0.17" stroke-miterlimit="10" d="M47.21,83.498
			c0.665-0.01,1.213-0.081,1.882-0.175c6.401-1.284,7.43,0.453,10.902,3.639c1.466,1.295,3.256,1.862,4.982,2.457
			c4.054,1.372,8.789-0.092,12.761-1.055c0.201-0.057,0.16-0.288-0.032-0.236c-3.592,0.867-7.046,1.641-10.737,1.402
			c-4.57-0.299-6.827-3.124-9.909-5.687c-2.777-2.416-6.564-0.917-9.839-0.598C47.046,83.267,47.01,83.523,47.21,83.498
			L47.21,83.498z"/>
	</g>
</g>
<g>
	<g>
		<path fill="#F7F7F7" stroke="#FFFFFF" stroke-width="0.17" stroke-miterlimit="10" d="M47.21,84.889
			c0.665-0.017,1.213-0.086,1.882-0.183c6.401-1.27,7.43,0.458,10.902,3.658c1.466,1.291,3.256,1.861,4.982,2.458
			c4.054,1.346,8.789-0.109,12.761-1.065c0.201-0.056,0.16-0.29-0.032-0.236c-3.592,0.883-7.046,1.645-10.737,1.394
			c-4.57-0.284-6.827-3.116-9.909-5.677c-2.777-2.424-6.564-0.921-9.839-0.609C47.046,84.661,47.01,84.916,47.21,84.889
			L47.21,84.889z"/>
	</g>
</g>
<g>
	<g>
		<path fill="#F7F7F7" stroke="#FFFFFF" stroke-width="0.17" stroke-miterlimit="10" d="M47.21,86.282
			c0.665-0.014,1.213-0.07,1.882-0.184c6.401-1.267,7.43,0.454,10.902,3.651c1.466,1.296,3.256,1.864,4.982,2.466
			c4.054,1.354,8.789-0.104,12.761-1.066c0.201-0.057,0.16-0.292-0.032-0.236c-3.592,0.875-7.046,1.643-10.737,1.402
			c-4.57-0.297-6.827-3.12-9.909-5.677c-2.777-2.419-6.564-0.936-9.839-0.597C47.046,86.043,47.01,86.311,47.21,86.282L47.21,86.282
			z"/>
	</g>
</g>
<g>
	<g>
		<path fill="#F7F7F7" stroke="#FFFFFF" stroke-width="0.17" stroke-miterlimit="10" d="M47.21,87.676
			c0.665-0.018,1.213-0.074,1.882-0.182c6.401-1.282,7.43,0.452,10.902,3.646c1.466,1.298,3.256,1.869,4.982,2.467
			c4.054,1.362,8.789-0.1,12.761-1.059c0.201-0.061,0.16-0.288-0.032-0.242c-3.592,0.882-7.046,1.649-10.737,1.404
			c-4.57-0.299-6.827-3.12-9.909-5.686c-2.777-2.421-6.564-0.913-9.839-0.599C47.046,87.444,47.01,87.705,47.21,87.676L47.21,87.676
			z"/>
	</g>
</g>
</svg>
